<svg width="199" height="116" viewBox="0 0 199 116" fill="none" xmlns="http://www.w3.org/2000/svg">
<path d="M38.5104 2.26782L61.5824 58.6312C62.8031 61.5491 63.9541 63.6631 65.0353 64.9732C66.1165 66.2832 67.1455 67.1169 68.122 67.4742C69.1335 67.8018 70.4066 68.0251 71.9412 68.1442V68.9722L59.3434 69.0539L46.7765 68.9722V68.1442C49.3575 68.1442 51.3456 67.9357 52.7407 67.5189C54.1358 67.1021 54.8334 65.9706 54.8334 64.1246C54.8334 63.1122 54.5021 61.7575 53.8394 60.0604C53.6999 59.8222 53.6301 59.6435 53.6301 59.5244L46.7765 42.0616H20.0946L13.9735 58.2292C13.1364 60.4325 12.7179 62.2041 12.7179 63.544C12.7179 65.39 13.2585 66.6257 14.3397 67.2509C15.4209 67.8464 16.9556 68.1442 18.9436 68.1442V68.9722H0.841797V68.1442C3.42279 67.9357 5.48061 67.1021 7.01526 65.6431C8.58478 64.1544 9.94503 61.9064 11.096 58.8991L32.8601 2.26782H38.5104ZM20.984 39.6945H45.5209L32.9647 8.47583H32.7554L20.984 39.6945Z" fill="white"/>
<path d="M62.4487 4.19889H61.4023V3.26099H88.0842C92.3743 3.26099 96.0016 3.8267 98.9663 4.95814C101.966 6.08957 104.285 7.53364 105.924 9.29035C107.599 11.0173 108.785 12.8484 109.482 14.7838C110.215 16.7191 110.581 18.6247 110.581 20.5005C110.581 22.8825 109.988 25.1751 108.802 27.3784C107.651 29.552 105.855 31.4278 103.413 33.0058C101.007 34.5839 97.9897 35.6558 94.3623 36.2215V36.4001C98.9663 38.3057 103.221 42.0871 107.128 47.7443L114.086 57.7932C117.225 62.2892 119.736 65.1326 121.62 66.3236C123.538 67.5146 125.421 68.1845 127.27 68.3334V69.048H113.249C112.656 68.393 112.098 67.7677 111.575 67.1722C111.052 66.5469 110.494 65.8919 109.901 65.2071C109.552 64.7605 109.029 64.0905 108.331 63.1973C107.668 62.2743 107.267 61.7532 107.128 61.6341L97.9199 48.6375C96.0714 45.9876 94.1705 43.8438 92.2173 42.2062C90.299 40.5388 88.5028 39.3478 86.8286 38.6332C85.1545 37.9186 83.6373 37.472 82.277 37.2934C80.9516 37.1147 79.3821 37.0254 77.5684 37.0254V61.0982C77.5684 65.7728 80.3587 68.1845 85.9392 68.3334V69.048H61.4023V68.3334C62.937 68.2739 64.2972 68.0357 65.4831 67.6188C66.669 67.1722 67.6456 66.4278 68.4129 65.3857C69.2151 64.3138 69.6162 62.8847 69.6162 61.0982V11.3448C69.6162 8.72463 68.8663 6.8786 67.3665 5.80672C65.8668 4.73483 64.2275 4.19889 62.4487 4.19889ZM77.5684 35.2836H81.9631C86.567 35.2836 90.3339 34.7179 93.2637 33.5864C96.2283 32.455 98.3733 30.8472 99.6987 28.7629C101.024 26.6489 101.687 24.0734 101.687 21.0364C101.687 18.5056 101.094 16.0343 99.908 13.6226C98.7221 11.181 96.6992 9.14147 93.8392 7.50387C91.014 5.83649 87.1948 5.0028 82.3816 5.0028C80.4285 5.0028 78.8241 5.13679 77.5684 5.40476V35.2836Z" fill="white"/>
<path d="M58.1606 68.4814V69.0093C57.1421 69.1128 56.4147 69.2059 55.9782 69.2887C55.5417 69.3508 55.0567 69.5578 54.5233 69.9097C53.6988 70.448 53.1775 70.9551 52.9592 71.4312C52.7652 71.9073 52.644 72.7354 52.5955 73.9153C52.5955 74.1105 52.5955 74.274 52.5955 74.4742L54.4505 108.444C54.499 109.872 54.8991 111.104 55.6508 112.139C56.4025 113.174 58.0393 113.702 60.5612 113.722V114.219H43.2112V113.722C45.4906 113.515 47.0304 112.956 47.8306 112.046C48.6308 111.114 48.9703 109.675 48.8491 107.729L46.994 72.5801H46.8485L27.9345 114.219L10.039 74.1016H9.89348L7.96571 106.518C7.86871 108.299 7.98996 109.686 8.32944 110.679C8.69317 111.652 9.26301 112.356 10.039 112.791C10.8149 113.205 11.9667 113.515 13.4944 113.722V114.219H0V113.722C1.72166 113.702 3.03109 113.35 3.92829 112.667C4.8255 111.983 5.40747 111.135 5.6742 110.12C5.96519 109.085 6.18342 107.678 6.32892 105.897L8.47493 72.3627C8.47493 72.2385 8.32944 72.0212 8.03845 71.7107C7.74747 71.3795 7.38374 71.0586 6.94726 70.7481C6.53503 70.4169 6.13493 70.1582 5.74695 69.9718C4.92249 69.5371 4.20715 69.2887 3.60094 69.2266C2.99472 69.1438 2.14601 69.0714 1.05482 69.0093V68.4814H13.4944L30.0805 105.897L46.9213 68.4814H58.1606Z" fill="white"/>
<path d="M82.0577 68.4814V69.0093C80.4573 69.0093 79.0993 69.3922 77.9839 70.1582C76.8685 70.9241 76.3107 72.1971 76.3107 73.9774V108.692C76.3107 110.452 76.9048 111.735 78.093 112.542C79.2812 113.329 80.6028 113.722 82.0577 113.722V114.219H65.0714V113.722C66.6234 113.722 67.9571 113.339 69.0725 112.573C70.2122 111.787 70.782 110.493 70.782 108.692V73.9774C70.782 72.0729 70.2122 70.7688 69.0725 70.065C67.9571 69.3612 66.6234 69.0093 65.0714 69.0093V68.4814H82.0577Z" fill="white"/>
<path d="M115.012 77.2688H114.43C114.09 75.0538 112.951 73.1183 111.011 71.4623C109.095 69.7855 106.561 68.9472 103.409 68.9472C101.348 68.9472 99.5168 69.3612 97.9164 70.1892C96.3159 71.0172 95.0792 72.1454 94.2063 73.5737C93.3333 75.0021 92.8969 76.6374 92.8969 78.4797C92.8969 79.9081 93.1515 81.1811 93.6607 82.299C94.1942 83.3961 94.9701 84.369 95.9886 85.2177C97.007 86.0664 98.2073 86.8634 99.5895 87.6086C100.972 88.3331 102.839 89.2543 105.191 90.3721C109.119 92.2145 112.175 94.0568 114.357 95.8992C116.539 97.7208 117.631 100.226 117.631 103.413C117.631 105.359 117.036 107.243 115.848 109.065C114.684 110.866 112.914 112.346 110.538 113.505C108.161 114.664 105.215 115.244 101.699 115.244C99.4925 115.244 97.5405 115.037 95.8431 114.623C94.1457 114.229 92.424 113.67 90.6781 112.946C89.9506 112.739 89.4535 112.635 89.1868 112.635C88.6776 112.635 88.3381 112.791 88.1684 113.101C88.0229 113.412 87.8168 114.084 87.55 115.12H86.9317V103.662H87.55C88.423 107.015 90.1204 109.551 92.6423 111.269C95.1641 112.987 98.2316 113.846 101.845 113.846C104.561 113.846 106.731 113.412 108.355 112.542C110.004 111.673 111.144 110.617 111.774 109.375C112.405 108.133 112.72 106.891 112.72 105.649C112.72 103.082 111.799 100.991 109.956 99.3768C108.137 97.7415 105.361 96.0751 101.626 94.3777C99.056 93.177 97.1525 92.2455 95.9158 91.5831C94.6791 90.9207 93.4182 90.0616 92.133 89.0059C90.8721 87.9502 89.8658 86.7082 89.1141 85.2798C88.3624 83.8308 87.9865 82.1748 87.9865 80.3117C87.9865 78.1589 88.6533 76.0992 89.987 74.1326C91.3207 72.1661 93.2121 70.5929 95.6612 69.4129C98.1103 68.2123 100.887 67.612 103.991 67.612C106.343 67.612 108.756 67.9536 111.229 68.6367C111.678 68.7453 112.138 68.8851 112.793 68.8851C113.593 68.8851 114.139 68.4193 114.43 67.4878H115.012V77.2688Z" fill="white"/>
<path d="M139.527 68.4814V69.0093C137.927 69.0093 136.569 69.3922 135.453 70.1582C134.338 70.9241 133.78 72.1971 133.78 73.9774V108.692C133.78 110.452 134.374 111.735 135.562 112.542C136.751 113.329 138.072 113.722 139.527 113.722V114.219H122.541V113.722C124.093 113.722 125.427 113.339 126.542 112.573C127.682 111.787 128.252 110.493 128.252 108.692V73.9774C128.252 72.0729 127.682 70.7688 126.542 70.065C125.427 69.3612 124.093 69.0093 122.541 69.0093V68.4814H139.527Z" fill="white"/>
<path d="M169.353 67.9225L185.394 107.108C186.242 109.137 187.043 110.607 187.794 111.518C188.546 112.428 189.261 113.008 189.94 113.256C190.643 113.484 191.529 113.639 192.596 113.722V114.219H175.1V113.722C176.894 113.722 178.277 113.577 179.247 113.288C180.217 112.998 180.701 112.211 180.701 110.928C180.701 110.224 180.471 109.282 180.01 108.102C179.913 107.936 179.865 107.812 179.865 107.729L175.1 95.5886H156.55L152.294 106.829C151.712 108.361 151.421 109.593 151.421 110.524C151.421 111.807 151.797 112.667 152.549 113.101C153.3 113.515 154.367 113.722 155.75 113.722V114.219H143.164V113.722C144.959 113.577 146.39 112.998 147.456 111.983C148.548 110.948 149.493 109.385 150.294 107.295L165.425 67.9225H169.353ZM157.168 93.943H174.227L165.498 72.2385H165.352L157.168 93.943Z" fill="white"/>
<path d="M140.719 67.3176C140.94 67.5086 141.173 67.6862 141.419 67.8507H129.377C129.494 67.7775 129.61 67.7019 129.725 67.6237L129.727 67.622C131.76 66.2265 132.653 63.9383 132.653 61.0975V5.85071V4.65412H131.456H116.127C112.265 4.65412 108.931 5.31578 106.175 6.70109C104.654 7.45913 103.502 8.655 102.675 10.2175V2.2613C102.786 2.36978 102.896 2.47035 103.004 2.56257C103.544 3.02426 104.205 3.39708 104.954 3.69971L104.975 3.70851L104.998 3.71645C105.756 3.98888 106.607 4.18418 107.542 4.31191L107.565 4.31496L107.587 4.31716C108.543 4.41136 109.648 4.45691 110.896 4.45691H160.807C163.735 4.45691 166.225 3.66605 168.19 2.03461V10.1684C167.365 8.62875 166.211 7.44945 164.687 6.69966C161.932 5.31533 158.598 4.65412 154.738 4.65412H139.409H138.212V5.85071V61.0975C138.212 63.6823 138.993 65.8262 140.719 67.3176Z" fill="white" stroke="white" stroke-width="2.39317"/>
<path d="M196.807 34.8115V35.3963C194.819 35.465 193.207 35.809 191.972 36.4281C190.736 37.0473 189.635 38.0218 188.668 39.3518C187.727 40.6818 186.747 42.459 185.726 44.6833C184.571 47.2057 183.577 49.2236 182.745 50.737C181.912 52.2275 181.187 53.397 180.569 54.2455C179.951 55.0939 179.36 55.8506 178.796 56.5156C178.984 56.6532 179.991 57.4329 181.818 58.8546C183.645 60.2763 185.202 61.4916 186.492 62.5006C189.42 64.6102 191.69 65.9517 193.301 66.525C194.94 67.0982 196.578 67.4078 198.217 67.4537V68.4908H185.685C181.064 65.3493 177.587 62.3745 175.331 60.54C173.8 62.2598 171.463 64.1172 168.32 66.1122C165.204 68.0843 161.524 69.0703 157.28 69.0703C154.997 69.0703 152.888 68.7378 150.954 68.0728C149.047 67.4078 147.355 66.4562 145.877 65.2179C144.4 63.9567 143.272 62.5579 142.493 61.0215C141.714 59.4622 141.324 57.8456 141.324 56.1717C141.324 52.9155 142.493 50.0147 144.83 47.4694C147.167 44.9011 150.014 42.6768 153.372 40.7965L152.808 40.3149C150.363 37.976 148.443 35.8319 147.046 33.8828C145.676 31.9108 144.991 29.8584 144.991 27.7259C144.991 25.6621 145.635 23.7244 146.925 21.9129C148.241 20.0784 150.054 18.6108 152.364 17.5102C154.674 16.4095 157.267 15.8591 160.141 15.8591C163.901 15.8591 166.937 16.7534 169.247 18.542C171.557 20.3307 172.712 22.5206 172.712 25.1117C172.712 28.024 171.382 30.6152 168.723 32.8853C166.091 35.1326 162.907 37.2307 159.174 39.1799C160.544 40.5328 162.693 42.4819 165.62 45.0272L171.463 50.2555C173.746 52.2963 175.761 54.0047 177.507 55.3805C178.93 53.5002 180.461 50.8288 182.1 47.3662C183.765 43.9036 184.598 41.0831 184.598 38.9047C184.598 37.483 184.155 36.5543 183.268 36.1186C182.409 35.6829 181.308 35.4421 179.964 35.3963V34.8115H196.807ZM158.086 38.0104C160.933 36.4511 163.243 34.8115 165.016 33.0917C166.789 31.3719 167.675 29.2737 167.675 26.7972C167.675 25.3296 167.272 23.9079 166.467 22.532C165.661 21.1562 164.492 20.044 162.961 19.1956C161.43 18.3471 159.697 17.9229 157.763 17.9229C155.077 17.9229 153.022 18.5994 151.599 19.9523C150.202 21.3052 149.504 22.9104 149.504 24.7678C149.504 26.029 149.933 27.4851 150.793 29.1361C151.679 30.7642 152.781 32.3464 154.097 33.8828C155.44 35.4192 156.77 36.795 158.086 38.0104ZM154.459 42.0004C148.899 45.1878 146.119 48.9484 146.119 53.2824C146.119 55.5067 146.831 57.5475 148.254 59.4049C149.678 61.2394 151.532 62.6726 153.815 63.7045C156.098 64.7363 158.408 65.2523 160.745 65.2523C162.787 65.2523 164.653 64.9427 166.346 64.3236C168.038 63.7045 169.462 62.9936 170.617 62.191C171.772 61.3884 172.94 60.4827 174.122 59.4737C171.812 57.5934 170.039 56.1373 168.804 55.1054C167.595 54.0505 166.305 52.9269 164.935 51.7345C163.592 50.5421 162.169 49.258 160.664 47.8821C159.187 46.5063 157.119 44.5457 154.459 42.0004Z" fill="#D41E1B"/>
</svg>
