<svg width="36" height="36" viewBox="0 0 36 36" fill="none" xmlns="http://www.w3.org/2000/svg">
<path fill-rule="evenodd" clip-rule="evenodd" d="M34.7686 3.16887C35.3933 2.54404 35.3933 1.53098 34.7686 0.906148C34.1437 0.281284 33.1306 0.281284 32.5056 0.906148L17.6371 15.7748L2.76848 0.906148C2.14364 0.281284 1.13059 0.281284 0.505757 0.906148C-0.119107 1.53098 -0.119107 2.54404 0.505757 3.16887L15.3744 18.0375L0.505757 32.906C-0.119107 33.5309 -0.119107 34.5441 0.505757 35.169C1.13059 35.7937 2.14364 35.7937 2.76848 35.169L17.6371 20.3003L32.5056 35.169C33.1306 35.7937 34.1437 35.7937 34.7686 35.169C35.3933 34.5441 35.3933 33.5309 34.7686 32.906L19.8999 18.0375L34.7686 3.16887Z" fill="#FBC06C"/>
</svg>
